<?xml version="1.0" encoding="utf-8"?>
<!-- Generator: Adobe Illustrator 16.0.0, SVG Export Plug-In . SVG Version: 6.00 Build 0)  -->
<!DOCTYPE svg PUBLIC "-//W3C//DTD SVG 1.1//EN" "http://www.w3.org/Graphics/SVG/1.1/DTD/svg11.dtd">
<svg version="1.1" id="Layer_1" xmlns="http://www.w3.org/2000/svg" xmlns:xlink="http://www.w3.org/1999/xlink" x="0px" y="0px"
	 width="155.277px" height="25.989px" viewBox="0 0 155.277 25.989" enable-background="new 0 0 155.277 25.989"
	 xml:space="preserve">
<g>
	<path fill="#3897F1" d="M0,25.542L4.504,0H14.52c5.567,0,7.96,2.4,7.153,6.977c-0.474,2.688-2.129,4.449-4.51,5.249
		c2.489,0.769,3.768,2.945,3.26,5.826c-0.875,4.961-4.296,7.49-9.991,7.49H0z M11.631,14.563H8.016l-1.128,6.402h3.615
		c2.272,0,3.498-0.96,3.892-3.201C14.795,15.491,13.903,14.563,11.631,14.563z M12.945,4.577H9.777l-1.01,5.729h3.168
		c2.111,0,3.334-0.769,3.701-2.849C16.009,5.345,15.056,4.577,12.945,4.577z"/>
	<path fill="#3897F1" d="M26.736,25.989c-3.647,0-5.754-2.208-5.127-5.761c0.632-3.585,3.453-5.793,7.165-5.793
		c2.336,0,4.092,0.928,4.508,2.561l0.632-3.585c0.248-1.409-0.34-2.433-1.844-2.433c-1.439,0-2.317,0.8-2.665,2.048h-5.663
		c0.797-3.617,3.872-6.177,9.056-6.177c5.216,0,7.482,2.752,6.811,6.562l-1.654,9.378c-0.181,1.024-0.186,2.145,0.026,2.752h-5.791
		c-0.14-0.48-0.159-1.28-0.038-2.145C31.253,24.87,29.296,25.989,26.736,25.989z M32.712,20.229
		c0.243-1.376-0.486-2.145-2.311-2.145c-1.823,0-2.855,0.769-3.098,2.145c-0.243,1.376,0.555,2.112,2.347,2.112
		C31.411,22.341,32.47,21.604,32.712,20.229z"/>
	<path fill="#3897F1" d="M56.896,25.542h-5.696l2.026-11.491c0.355-2.017-0.222-2.913-1.726-2.913c-1.824,0-3.236,1.472-3.688,4.033
		l-1.829,10.371h-5.695l3.217-18.244H49.2l-0.514,2.913c0.996-2.016,3.025-3.361,5.617-3.361c3.775,0,5.476,2.336,4.646,7.042
		L56.896,25.542z"/>
	<path fill="#3897F1" d="M63.959,0h5.696l-2.472,14.019h1.279l4.545-6.722h5.919l-6.25,8.77l3.801,9.474h-6.016l-2.744-7.49h-1.247
		l-1.32,7.49h-5.696L63.959,0z"/>
	<path fill="#3897F1" d="M83.487,25.542h-5.696L82.295,0h5.696l-1.778,10.082c0.946-1.92,3.001-3.233,5.529-3.233
		c4.288,0,6.219,3.201,5.096,9.57s-4.183,9.57-8.471,9.57c-2.527,0-4.12-1.312-4.389-3.232L83.487,25.542z M87.204,21.701
		c2.08,0,3.289-1.409,3.971-5.281c0.683-3.873-0.029-5.281-2.109-5.281c-2.111,0-3.287,1.408-3.97,5.281
		C84.413,20.292,85.092,21.701,87.204,21.701z"/>
	<path fill="#3897F1" d="M109.022,6.849c6.016,0,8.038,3.777,7.017,9.57s-4.376,9.57-10.392,9.57c-6.047,0-8.101-3.776-7.079-9.57
		S102.976,6.849,109.022,6.849z M106.404,21.701c2.08,0,3.289-1.409,3.971-5.281c0.683-3.873-0.029-5.281-2.109-5.281
		c-2.111,0-3.319,1.408-4.002,5.281C103.581,20.292,104.292,21.701,106.404,21.701z"/>
	<path fill="#3897F1" d="M128.222,6.849c6.016,0,8.038,3.777,7.017,9.57s-4.376,9.57-10.392,9.57c-6.047,0-8.101-3.776-7.079-9.57
		S122.175,6.849,128.222,6.849z M125.603,21.701c2.08,0,3.289-1.409,3.971-5.281c0.683-3.873-0.029-5.281-2.109-5.281
		c-2.111,0-3.319,1.408-4.002,5.281C122.78,20.292,123.492,21.701,125.603,21.701z"/>
	<path fill="#3897F1" d="M140.31,0h5.695l-2.472,14.019h1.28l4.545-6.722h5.919l-6.25,8.77l3.801,9.474h-6.016l-2.744-7.49h-1.248
		l-1.32,7.49h-5.695L140.31,0z"/>
</g>
</svg>
